<svg width="38" height="38" viewBox="0 0 38 38" fill="none" xmlns="http://www.w3.org/2000/svg">
<path fill-rule="evenodd" clip-rule="evenodd" d="M10.6053 4.11664C8.99897 4.11664 7.89677 4.80815 6.36259 6.35052C6.1339 6.58042 5.91231 6.83215 5.6312 7.17043L5.41058 7.38735C3.78355 8.97331 3.72305 11.9579 5.03283 15.5574C6.39955 19.0138 8.88865 22.6284 12.1122 25.8691C17.3457 31.094 22.8948 33.8833 26.9032 33.8833L27.2262 33.8766C28.6042 33.8189 29.6991 33.3849 30.5017 32.5506L30.6129 32.4266L30.7736 32.2895C30.8812 32.1925 30.9919 32.0838 31.1465 31.928C32.9821 30.2979 33.8695 29.1045 33.8852 27.3202L33.8805 27.0334C33.677 25.4323 32.8552 24.1191 31.3305 22.8053C29.6178 21.3922 27.9567 20.6216 26.5066 20.6216L26.2424 20.6271C24.9525 20.6827 24.109 21.1631 22.8928 22.3159L22.5557 22.6416C22.401 22.5642 22.2152 22.4568 21.9861 22.3067C21.1436 21.7548 20.0294 20.8089 18.6149 19.3869C17.2256 17.9902 16.2783 16.889 15.7038 16.0592L15.481 15.7216L15.3749 15.5471L15.2939 15.4052L15.4901 15.1936C17.9305 12.5006 18.0286 10.3318 15.1127 6.70439C13.7214 4.98987 12.2429 4.11664 10.6053 4.11664ZM10.6053 6.01664C11.5982 6.01664 12.5767 6.59454 13.6346 7.8982C16.0581 10.9131 15.919 12.047 13.7317 14.2903L13.2636 14.7608V15.1528C13.2636 16.116 14.3942 17.8378 17.2679 20.7269L17.8545 21.3071C20.2283 23.6146 21.7299 24.5586 22.7135 24.6685L23.1697 24.7194L23.7313 24.1537C24.9888 22.8902 25.5543 22.5216 26.5066 22.5216C27.4431 22.5216 28.7181 23.1131 30.1058 24.2578L30.3498 24.4746C31.2891 25.3359 31.7897 26.1296 31.9544 26.9517L31.9797 27.1054L31.9805 27.0733C32.0299 28.2843 31.4041 29.1586 29.8405 30.5492L29.5552 30.8283C29.4834 30.8956 29.4268 30.9444 29.3618 30.9966L29.2308 31.1242C28.7472 31.6963 28.0192 31.9833 26.9032 31.9833C23.4561 31.9833 18.3597 29.4216 13.4569 24.5269C10.4084 21.4621 8.06532 18.0595 6.80897 14.8832C5.73635 11.9343 5.78208 9.67847 6.74786 8.73696L7.03599 8.44695L7.41959 8.00127C7.49155 7.92025 7.55658 7.84923 7.61854 7.78414L7.70966 7.69044C8.91381 6.47986 9.65215 6.01664 10.6053 6.01664Z" fill="white"/>
</svg>
