<svg width="30" height="30" viewBox="0 0 30 30" fill="none" xmlns="http://www.w3.org/2000/svg">
<path fill-rule="evenodd" clip-rule="evenodd" d="M10.7894 6.62883C11.3689 4.79789 13.0939 3.46939 15.1313 3.46939C17.1687 3.46939 18.8937 4.79789 19.4732 6.62883C19.5957 7.01585 20.0104 7.2308 20.3994 7.10893C20.7884 6.98706 21.0045 6.57452 20.882 6.1875C20.1137 3.76025 17.8298 2 15.1313 2C12.4328 2 10.1489 3.76025 9.3806 6.1875C9.2581 6.57452 9.47416 6.98707 9.86319 7.10893C10.2522 7.2308 10.6669 7.01585 10.7894 6.62883ZM25.506 11.3056L23.1641 23.7315C23.0768 24.1949 22.6701 24.5306 22.1963 24.5306H7.82012C7.34629 24.5306 6.93966 24.1949 6.85234 23.7315L4.494 11.2183C4.41298 10.7884 4.62822 10.3572 5.02143 10.1616L6.94359 9.20545C7.08032 9.13744 7.23108 9.10203 7.38394 9.10203H22.1784C22.3161 9.10203 22.4524 9.13079 22.5783 9.18646L24.9381 10.2299C25.355 10.4142 25.59 10.8594 25.506 11.3056ZM3.04233 11.4891C2.83979 10.4144 3.37788 9.33633 4.36091 8.84733L6.28307 7.89119C6.62488 7.72116 7.00179 7.63264 7.38394 7.63264H22.1784C22.5228 7.63264 22.8634 7.70455 23.1781 7.84372L25.5379 8.88715C26.5803 9.34804 27.1678 10.461 26.9576 11.5764L24.6157 24.0023C24.3974 25.1606 23.3809 26 22.1963 26H7.82012C6.63555 26 5.61897 25.1606 5.40067 24.0023L3.04233 11.4891Z" fill="white"/>
</svg>
