<svg width="30" height="30" viewBox="0 0 30 30" fill="none" xmlns="http://www.w3.org/2000/svg">
<path fill-rule="evenodd" clip-rule="evenodd" d="M8.46091 8.17254C6.77386 8.63259 4.97029 9.99821 4.97029 12.4525C4.97029 16.9586 13.1288 22.5092 14.9998 23.7223C16.8709 22.5092 25.0299 16.9591 25.0299 12.4525C25.0299 9.99821 23.2268 8.63259 21.5387 8.17254C21.0263 8.0325 20.4912 7.96145 19.9503 7.96145C18.075 7.96145 16.4844 8.8053 15.5871 10.2767C15.5798 10.2897 15.5618 10.3104 15.5508 10.3208C15.507 10.3732 15.4506 10.4287 15.3894 10.479C15.3842 10.4821 15.3409 10.5143 15.3351 10.5169C15.3061 10.5298 15.2761 10.5402 15.245 10.5485C15.2276 10.5594 15.1828 10.5755 15.1369 10.5864C15.0779 10.5936 15.0388 10.5957 15.0004 10.5957C14.9613 10.5957 14.9223 10.5936 14.8838 10.5895C14.8164 10.5755 14.7705 10.5589 14.7267 10.5381C14.7194 10.5381 14.6919 10.5288 14.6656 10.5174C14.645 10.5086 14.6176 10.4878 14.6023 10.4712C14.5491 10.4287 14.4927 10.3732 14.4415 10.313C13.5152 8.80582 11.9246 7.96249 10.0483 7.96249C9.50794 7.96249 8.97336 8.03302 8.46091 8.17254ZM14.8237 25.1756C14.8158 25.174 14.7816 25.1616 14.7742 25.158C14.7315 25.1434 14.6941 25.1274 14.6577 25.1077C14.1864 24.8208 3.6001 18.25 3.6001 12.4525C3.6001 9.76688 5.32247 7.62847 8.09504 6.87279C8.71345 6.69178 9.35664 6.59998 10.003 6.59998C11.9173 6.59998 13.7277 7.3987 14.9998 8.79752C16.2715 7.3987 18.0819 6.59998 19.9961 6.59998C20.643 6.59998 21.2862 6.69178 21.9078 6.87383C24.6777 7.62847 26.4001 9.76688 26.4001 12.4525C26.4001 18.2536 15.8133 24.8208 15.3625 25.0978C15.3061 25.1274 15.2682 25.1434 15.2286 25.1564C15.2244 25.158 15.1775 25.1756 15.1733 25.1761C15.1216 25.1901 15.0663 25.1974 15.012 25.1979C15.0046 25.1989 14.9998 25.2 14.9956 25.2C14.9909 25.2 14.9635 25.1969 14.9613 25.1969C14.9276 25.1969 14.8754 25.1896 14.8237 25.1756Z" fill="white"/>
</svg>
