<svg width="90" height="35" viewBox="0 0 90 35" fill="none" xmlns="http://www.w3.org/2000/svg">
<path fill-rule="evenodd" clip-rule="evenodd" d="M14.3 25.9121C16.7368 25.9121 18.9255 25.1419 20.8661 23.6015C21.1533 23.3073 21.2969 22.9785 21.2969 22.615C21.2969 22.4246 21.2599 22.245 21.186 22.0763C21.112 21.9075 21.0119 21.7626 20.8857 21.6414C20.7595 21.5203 20.6138 21.4229 20.4484 21.3494C20.2831 21.2758 20.1047 21.239 19.9132 21.239C19.5999 21.2477 19.3301 21.3299 19.1039 21.4857C17.7202 22.602 16.1189 23.1602 14.3 23.1602C12.1679 23.1602 10.3534 22.416 8.85657 20.9275C7.36843 19.4477 6.62436 17.6477 6.62436 15.5275C6.62436 13.416 7.36843 11.6203 8.85657 10.1405C10.3621 8.64336 12.1766 7.89481 14.3 7.89481C15.1964 7.89481 16.0427 8.03327 16.839 8.31019C17.6353 8.58711 18.3641 8.98519 19.0255 9.50442C19.3214 9.76404 19.6391 9.89384 19.9785 9.89384C20.1699 9.89384 20.3505 9.85923 20.5202 9.79C20.6899 9.72077 20.8379 9.62341 20.964 9.49793C21.0902 9.37245 21.1881 9.2275 21.2578 9.06308C21.3274 8.89865 21.3622 8.71692 21.3622 8.51788C21.3622 8.11981 21.2404 7.80394 20.9967 7.57029C19.0038 5.95202 16.7716 5.14288 14.3 5.14288C11.4195 5.14288 8.95665 6.15971 6.91154 8.19336C4.87514 10.2184 3.85693 12.6631 3.85693 15.5275C3.85693 18.4006 4.87514 20.8496 6.91154 22.8746C8.94795 24.8996 11.4108 25.9121 14.3 25.9121ZM31.0858 25.9121C33.0874 25.9121 34.8105 25.2025 36.2552 23.7833C37.6824 22.3813 38.396 20.6679 38.396 18.6429C38.3873 17.639 38.2067 16.7087 37.8543 15.852C37.5018 14.9953 36.9688 14.2121 36.2552 13.5025C34.8105 12.0833 33.0874 11.3737 31.0858 11.3737C29.0668 11.3737 27.3437 12.0833 25.9165 13.5025C24.4893 14.9217 23.7757 16.6352 23.7757 18.6429C23.7757 20.6506 24.4893 22.364 25.9165 23.7833C27.3437 25.2025 29.0668 25.9121 31.0858 25.9121ZM31.0858 23.1991C30.4419 23.1991 29.8414 23.078 29.2844 22.8357C28.7274 22.5934 28.2444 22.2667 27.8354 21.8556C27.4264 21.4446 27.1022 20.9621 26.8629 20.4083C26.6236 19.8544 26.5039 19.266 26.5039 18.6429C26.5039 18.0198 26.6236 17.4313 26.8629 16.8775C27.1022 16.3237 27.4264 15.8412 27.8354 15.4301C28.2444 15.0191 28.7274 14.6924 29.2844 14.4501C29.8414 14.2078 30.4419 14.0866 31.0858 14.0866C31.7211 14.0866 32.3173 14.2078 32.8742 14.4501C33.4312 14.6924 33.9164 15.0212 34.3297 15.4366C34.7431 15.852 35.0695 16.3345 35.3088 16.884C35.5481 17.4335 35.6678 18.0198 35.6678 18.6429C35.6678 19.266 35.5481 19.8523 35.3088 20.4018C35.0695 20.9513 34.7431 21.4338 34.3297 21.8491C33.9164 22.2645 33.4312 22.5934 32.8742 22.8357C32.3173 23.078 31.7211 23.1991 31.0858 23.1991ZM48.3677 25.9121C50.3693 25.9121 52.0924 25.2025 53.537 23.7833C54.9643 22.3813 55.6779 20.6679 55.6779 18.6429C55.6692 17.639 55.4886 16.7087 55.1361 15.852C54.7837 14.9953 54.2506 14.2121 53.537 13.5025C52.0924 12.0833 50.3693 11.3737 48.3677 11.3737C46.3487 11.3737 44.6256 12.0833 43.1984 13.5025C41.7711 14.9217 41.0575 16.6352 41.0575 18.6429C41.0575 20.6506 41.7711 22.364 43.1984 23.7833C44.6256 25.2025 46.3487 25.9121 48.3677 25.9121ZM48.3677 23.1991C47.7237 23.1991 47.1232 23.078 46.5663 22.8357C46.0093 22.5934 45.5263 22.2667 45.1173 21.8556C44.7083 21.4446 44.3841 20.9621 44.1448 20.4083C43.9054 19.8544 43.7858 19.266 43.7858 18.6429C43.7858 18.0198 43.9054 17.4313 44.1448 16.8775C44.3841 16.3237 44.7083 15.8412 45.1173 15.4301C45.5263 15.0191 46.0093 14.6924 46.5663 14.4501C47.1232 14.2078 47.7237 14.0866 48.3677 14.0866C49.003 14.0866 49.5991 14.2078 50.1561 14.4501C50.713 14.6924 51.1982 15.0212 51.6116 15.4366C52.025 15.852 52.3513 16.3345 52.5906 16.884C52.8299 17.4335 52.9496 18.0198 52.9496 18.6429C52.9496 19.266 52.8299 19.8523 52.5906 20.4018C52.3513 20.9513 52.025 21.4338 51.6116 21.8491C51.1982 22.2645 50.713 22.5934 50.1561 22.8357C49.5991 23.078 49.003 23.1991 48.3677 23.1991ZM69.5788 25.9121C69.7702 25.9121 69.9486 25.8775 70.114 25.8083C70.2793 25.739 70.4229 25.6417 70.5447 25.5162C70.6666 25.3907 70.7645 25.2458 70.8385 25.0813C70.9124 24.9169 70.9494 24.7438 70.9494 24.5621C70.9494 24.2073 70.8232 23.8914 70.5709 23.6145L64.9577 17.3318L70.4273 13.8011C70.7754 13.5674 70.9494 13.2083 70.9494 12.7237C70.9494 12.5419 70.9124 12.3688 70.8385 12.2044C70.7645 12.04 70.6666 11.895 70.5447 11.7696C70.4229 11.6441 70.2793 11.5467 70.114 11.4775C69.9486 11.4083 69.7702 11.3737 69.5788 11.3737C69.309 11.3737 69.0653 11.4429 68.8477 11.5813L61.0415 16.6309V6.50586C61.0415 6.12509 60.9088 5.80274 60.6434 5.5388C60.3779 5.27485 60.0581 5.14288 59.6839 5.14288C59.301 5.14288 58.9768 5.27485 58.7114 5.5388C58.446 5.80274 58.3133 6.12509 58.3133 6.50586V24.5491C58.3133 24.9212 58.446 25.2414 58.7114 25.5097C58.9768 25.778 59.301 25.9121 59.6839 25.9121C60.0581 25.9121 60.3779 25.778 60.6434 25.5097C60.9088 25.2414 61.0415 24.9212 61.0415 24.5491V19.8631L62.6341 18.8246L68.665 25.5616C68.9087 25.7953 69.2132 25.9121 69.5788 25.9121ZM77.2007 32.1429C77.4792 32.1429 77.7359 32.0585 77.9709 31.8898C78.2059 31.721 78.3799 31.5025 78.4931 31.2342L85.9991 13.3337C86.0948 13.1174 86.1426 12.914 86.1426 12.7237C86.1426 12.5419 86.1057 12.3688 86.0317 12.2044C85.9577 12.04 85.8598 11.895 85.738 11.7696C85.6161 11.6441 85.4725 11.5467 85.3072 11.4775C85.1418 11.4083 84.9634 11.3737 84.772 11.3737C84.4152 11.3737 84.1389 11.4537 83.9431 11.6138C83.7473 11.7739 83.5971 11.9837 83.4927 12.2434L79.8246 20.9794L76.1564 12.2693C76.0346 11.9751 75.8562 11.7523 75.6212 11.6008C75.3862 11.4494 75.1339 11.3737 74.8641 11.3737C74.6726 11.3737 74.4942 11.4083 74.3289 11.4775C74.1635 11.5467 74.0199 11.6441 73.8981 11.7696C73.7763 11.895 73.6805 12.04 73.6109 12.2044C73.5413 12.3688 73.5065 12.5419 73.5065 12.7237C73.5065 12.9313 73.55 13.1347 73.637 13.3337L78.3364 24.5621L75.9737 30.1828C75.8866 30.3732 75.8431 30.5722 75.8431 30.7799C75.8431 31.1693 75.9715 31.4938 76.2282 31.7535C76.4849 32.0131 76.8091 32.1429 77.2007 32.1429Z" fill="white"/>
</svg>
