<svg width="20" height="20" viewBox="0 0 20 20" fill="none" xmlns="http://www.w3.org/2000/svg">
<path fill-rule="evenodd" clip-rule="evenodd" d="M8.86652 3.33331C11.9185 3.33331 14.4002 5.81523 14.4002 8.86727C14.4002 10.1249 13.9407 11.3984 13.146 12.3915L16.5773 15.8229C16.7856 16.0311 16.7856 16.3688 16.5773 16.5771C16.3879 16.7664 16.0916 16.7837 15.8829 16.6287L15.823 16.5771L12.382 13.136C11.3767 13.9203 10.0831 14.4 8.86652 14.4C5.81547 14.4 3.3335 11.9184 3.3335 8.86727C3.3335 5.81553 5.81546 3.33331 8.86652 3.33331ZM8.86652 4.39998C6.40458 4.39998 4.40016 6.40461 4.40016 8.86726C4.40016 11.3292 6.40453 13.3333 8.86652 13.3333C9.90893 13.3333 11.0601 12.8768 11.904 12.1489C11.9597 12.1008 12.0226 12.0663 12.0886 12.0451L12.1103 11.9925C12.1306 11.9503 12.1569 11.9102 12.1892 11.8732C12.9098 11.0489 13.3335 9.94311 13.3335 8.86726C13.3335 6.4043 11.3294 4.39998 8.86652 4.39998Z" fill="#ACACAC"/>
</svg>
