<svg width="24" height="25" viewBox="0 0 24 25" fill="none" xmlns="http://www.w3.org/2000/svg">
<path fill-rule="evenodd" clip-rule="evenodd" d="M12.0004 3.33362C17.3023 3.33362 21.6004 7.63168 21.6004 12.9336C21.6004 18.2356 17.3023 22.5336 12.0004 22.5336C6.69846 22.5336 2.40039 18.2356 2.40039 12.9336C2.40039 7.63168 6.69846 3.33362 12.0004 3.33362ZM12.0004 4.45361C7.31702 4.45361 3.52039 8.25024 3.52039 12.9336C3.52039 17.617 7.31702 21.4136 12.0004 21.4136C16.6838 21.4136 20.4804 17.617 20.4804 12.9336C20.4804 8.25024 16.6838 4.45361 12.0004 4.45361Z" fill="#EF0100"/>
<circle cx="12.0002" cy="12.9336" r="8.8" fill="#EF0100"/>
<path fill-rule="evenodd" clip-rule="evenodd" d="M11.7945 8.13361C12.0375 8.13361 12.2383 8.33748 12.2701 8.602L12.2745 8.67554V17.1917C12.2745 17.491 12.0595 17.7336 11.7945 17.7336C11.5514 17.7336 11.3506 17.5297 11.3188 17.2652L11.3145 17.1917V8.67554C11.3145 8.37624 11.5294 8.13361 11.7945 8.13361Z" fill="#FAFFF9"/>
<path fill-rule="evenodd" clip-rule="evenodd" d="M16.2583 12.2479C16.5576 12.2479 16.8002 12.4628 16.8002 12.7279C16.8002 12.9709 16.5963 13.1718 16.3318 13.2035L16.2583 13.2079H7.74213C7.44283 13.2079 7.2002 12.993 7.2002 12.7279C7.2002 12.4849 7.40407 12.2841 7.66859 12.2523L7.74213 12.2479H16.2583Z" fill="#FAFFF9"/>
</svg>
