<svg width="18" height="22" viewBox="0 0 18 22" fill="none" xmlns="http://www.w3.org/2000/svg">
<path d="M13.1706 11.151C13.3361 10.8639 13.703 10.7654 13.9901 10.9309C16.3286 12.2792 17.476 14.2199 17.476 16.7679C17.4768 20.1788 14.9076 21.4966 8.82639 21.4966L8.31371 21.4933C2.60024 21.4196 0.175781 20.0815 0.175781 16.7681C0.175781 14.2202 1.3228 12.2796 3.66052 10.9313C3.94757 10.7657 4.31448 10.8642 4.48004 11.1513C4.6456 11.4383 4.54711 11.8052 4.26006 11.9708C2.28999 13.107 1.37578 14.6538 1.37578 16.7681C1.37578 19.2599 3.26189 20.2655 8.57483 20.2959L8.82639 20.2966C14.3312 20.2966 16.2766 19.2988 16.276 16.7681C16.276 14.6535 15.3615 13.1068 13.3907 11.9705C13.1036 11.805 13.0051 11.4381 13.1706 11.151Z" fill="white"/>
<path fill-rule="evenodd" clip-rule="evenodd" d="M3.68018 5.52119C3.68018 2.67956 5.98388 0.375854 8.82551 0.375854C11.6674 0.375854 13.9712 2.6795 13.9712 5.52119C13.9712 8.36287 11.6674 10.6665 8.82551 10.6665C5.98388 10.6665 3.68018 8.36281 3.68018 5.52119ZM12.7712 5.52118C12.7712 3.34225 11.0047 1.57585 8.82551 1.57585C6.64662 1.57585 4.88018 3.3423 4.88018 5.52118C4.88018 7.70007 6.64662 9.46652 8.82551 9.46652C11.0047 9.46652 12.7712 7.70012 12.7712 5.52118Z" fill="white"/>
</svg>
